<svg xmlns="http://www.w3.org/2000/svg" width="430" height="430" style="width:100%;height:100%;transform:translate3d(0,0,0);content-visibility:visible" viewBox="0 0 430 430"><defs><clipPath id="a"><path d="M0 0h430v430H0z"/></clipPath><clipPath id="d"><path d="M0 0h430v430H0z"/></clipPath><clipPath id="c"><path d="M0 0h430v430H0z"/></clipPath><clipPath id="b"><path d="M0 0h430v430H0z"/></clipPath></defs><g clip-path="url(#a)"><g clip-path="url(#b)" style="display:none"><g style="display:none"><path class="quaternary"/><path fill="none" class="primary"/></g><g style="display:none"><path class="quaternary"/><path fill="none" class="primary"/><path class="quaternary" style="mix-blend-mode:multiply"/><path class="tertiary"/><path fill="none" class="primary"/><path class="quaternary"/><path fill="none" class="primary"/><path class="secondary"/><path class="secondary" style="mix-blend-mode:multiply"/><path fill="none" class="primary"/><path class="quaternary" style="mix-blend-mode:multiply"/><path fill="none" class="primary"/><path fill="none" class="primary"/><path fill="none" class="primary"/><path fill="none" class="primary"/><path fill="none" class="primary"/><path fill="none" class="primary"/><path fill="none" class="primary"/><path fill="none" class="primary"/></g><g style="display:none"><path class="quaternary"/><path fill="none" class="primary"/></g></g><g clip-path="url(#c)" style="display:block"><g style="display:block"><path fill="#F24C00" d="m339.813 132.528-18.368-18.37a3.433 3.433 0 0 0-4.853-.002l-8.438 8.437a3.431 3.431 0 0 0 0 4.852l7.011 7.011-1.441 1.442a3.431 3.431 0 0 0 4.851 4.852l1.442-1.441 6.506 6.506a3.421 3.421 0 0 0 2.426 1.005 3.42 3.42 0 0 0 2.426-1.005l8.438-8.435a3.429 3.429 0 0 0 0-4.852z" class="quaternary"/><path fill="none" stroke="#121331" stroke-linecap="round" stroke-linejoin="round" stroke-width="7.28" d="m339.813 132.528-18.368-18.37a3.433 3.433 0 0 0-4.853-.002l-8.438 8.437a3.431 3.431 0 0 0 0 4.852l7.011 7.011-1.441 1.442a3.431 3.431 0 0 0 4.851 4.852l1.442-1.441 6.506 6.506a3.421 3.421 0 0 0 2.426 1.005 3.42 3.42 0 0 0 2.426-1.005l8.438-8.435a3.429 3.429 0 0 0 0-4.852z" class="primary"/></g><g style="display:block"><path fill="#F24C00" d="M239.368 61.075h-47.736v39.165h47.736V61.075z" class="quaternary"/><path fill="#F24C00" d="M11.475-22.19h-22.95v34.652h22.95V-22.19z" class="quaternary" opacity=".5" style="mix-blend-mode:multiply" transform="matrix(1.04 0 0 1.04 203.566 87.279)"/><path fill="none" stroke="#121331" stroke-linecap="round" stroke-linejoin="round" stroke-width="7.28" d="M239.368 61.075h-47.736v39.165h47.736V61.075z" class="primary"/><path fill="#3A3347" d="M318.452 136.021c-56.768-56.767-149.136-56.766-205.904.001-56.767 56.768-56.767 149.135 0 205.903C140.935 370.31 178.212 384.5 215.5 384.5c37.28 0 74.571-14.195 102.952-42.575 56.767-56.768 56.767-149.136 0-205.904z" class="tertiary"/><path fill="none" stroke="#121331" stroke-linecap="round" stroke-linejoin="round" stroke-width="7.28" d="M318.452 136.021c-56.768-56.767-149.136-56.766-205.904.001-56.767 56.768-56.767 149.135 0 205.903C140.935 370.31 178.212 384.5 215.5 384.5c37.28 0 74.571-14.195 102.952-42.575 0 0 0 0 0 0 56.767-56.768 56.767-149.136 0-205.904z" class="primary"/><path fill="#F24C00" d="M264.125 40.226h-96.997a4.16 4.16 0 0 0-4.16 4.16v15.523a4.16 4.16 0 0 0 4.16 4.16h96.997a4.16 4.16 0 0 0 4.16-4.16V44.386a4.16 4.16 0 0 0-4.16-4.16z" class="quaternary"/><path fill="none" stroke="#121331" stroke-linecap="round" stroke-linejoin="round" stroke-width="7.28" d="M264.125 40.226h-96.997a4.16 4.16 0 0 0-4.16 4.16v15.523a4.16 4.16 0 0 0 4.16 4.16h96.997a4.16 4.16 0 0 0 4.16-4.16V44.386a4.16 4.16 0 0 0-4.16-4.16z" class="primary"/><path fill="#EBE6EF" d="M306.73 147.741c-50.305-50.305-132.156-50.305-182.462.001-50.305 50.305-50.305 132.157 0 182.463 25.156 25.155 58.19 37.728 91.232 37.728 33.036 0 66.082-12.579 91.23-37.728h.002c50.305-50.306 50.304-132.158-.001-182.464z" class="secondary"/><path fill="#EBE6EF" d="M108.234 71.045a117.94 117.94 0 0 1-4.75 5.03c-24.18 24.18-55.96 36.27-87.72 36.27-31.77 0-63.53-12.09-87.72-36.27-48.37-48.37-48.37-127.08 0-175.45 4.8-4.8 9.9-9.13 15.25-12.97-43.56 48.65-41.98 123.69 4.75 170.42 24.19 24.18 55.95 36.27 87.72 36.27 25.45 0 50.92-7.76 72.47-23.3z" class="secondary" opacity=".5" style="mix-blend-mode:multiply" transform="matrix(1.04 0 0 1.04 199.105 251.091)"/><path fill="none" stroke="#121331" stroke-linecap="round" stroke-linejoin="round" stroke-width="7.28" d="M306.73 147.741c-50.305-50.305-132.156-50.305-182.462.001-50.305 50.305-50.305 132.157 0 182.463 25.156 25.155 58.19 37.728 91.232 37.728 33.036 0 66.082-12.579 91.23-37.728h.002c50.305-50.306 50.304-132.158-.001-182.464z" class="primary"/><path fill="#F24C00" d="M11.475-21.254h-23.562a4 4 0 0 0-4 4v15.053a4 4 0 0 0 4 4h23.562v-23.053z" class="quaternary" opacity=".5" style="mix-blend-mode:multiply" transform="matrix(1.04 0 0 1.04 179.697 62.33)"/><path fill="none" stroke="#121331" stroke-linecap="round" stroke-linejoin="round" stroke-width="7.28" d="M215.5 358.337v-15.57m84.402-19.391-11.01-11.01m45.972-73.393h-15.571m-19.391-84.403-11.01 11.01M215.5 119.61v15.57m-84.402 19.39 11.01 11.01m-45.972 73.393h15.571m19.391 84.402 11.01-11.01" class="primary"/></g><g style="display:block"><path fill="#F24C00" d="M228.443 240.307c0 7.055-5.729 12.916-12.943 12.916-7.65 0-13.636-6.6-12.88-14.215l10.826-68.297c.371-2.34 3.738-2.34 4.109 0l10.825 68.297c.045.436.063.872.063 1.3z" class="quaternary"/><path fill="none" stroke="#121331" stroke-linecap="round" stroke-linejoin="round" stroke-width="7.28" d="M228.443 240.307c0 7.055-5.729 12.916-12.943 12.916-7.65 0-13.636-6.6-12.88-14.215l10.826-68.297c.371-2.34 3.738-2.34 4.109 0l10.825 68.297c.045.436.063.872.063 1.3z" class="primary"/></g></g><g clip-path="url(#d)" style="display:none"><g style="display:none"><path class="quaternary"/><path fill="none" class="primary"/></g><g style="display:none"><path class="quaternary"/><path class="quaternary" style="mix-blend-mode:multiply"/><path fill="none" class="primary"/><path class="quaternary"/><path class="quaternary" style="mix-blend-mode:multiply"/><path fill="none" class="primary"/><path class="tertiary"/><path fill="none" class="primary"/><path class="secondary"/><path class="secondary" style="mix-blend-mode:multiply"/><path fill="none" class="primary"/><path fill="none" class="primary"/><path fill="none" class="primary"/><path fill="none" class="primary"/><path fill="none" class="primary"/><path fill="none" class="primary"/><path fill="none" class="primary"/><path fill="none" class="primary"/><path fill="none" class="primary"/></g><g style="display:none"><path class="quaternary"/><path fill="none" class="primary"/></g></g></g></svg>